<svg width="256" height="262" viewBox="0 0 256 262" xmlns="http://www.w3.org/2000/svg">
  <path d="M255.68 133.45c0-10.5-.86-18.16-2.72-26.1H130.55v48.45h71.84c-1.45 12.04-9.27 30.17-26.64 42.36l-.24 1.62 38.74 29.44 2.68.26c24.58-22.22 38.75-54.92 38.75-96.03" fill="#4285F4"/>
  <path d="M130.55 261c35.21 0 64.77-11.33 86.38-30.86l-41.18-31.31c-11.01 7.52-25.81 12.77-45.2 12.77-34.48 0-63.77-22.23-74.23-52.97l-1.56.13-40.28 30.58-.54 1.47C35.39 232.27 79.29 261 130.55 261" fill="#34A853"/>
  <path d="M56.32 158.63c-2.72-7.94-4.27-16.44-4.27-25.18s1.55-17.24 4.13-25.18l-.08-1.73L15.3 75.46l-1.33.62C5.57 92.52.75 111.95.75 133.45s4.82 40.93 13.22 57.37l42.35-32.19" fill="#FBBC05"/>
  <path d="M130.55 55.29c24.44 0 40.9 10.36 50.31 19.01l36.7-35.28C195.19 18.66 165.76 5.89 130.55 5.89 79.29 5.89 35.39 34.62 13.97 76.08l42.13 32.56c10.6-30.74 39.89-53.35 74.45-53.35" fill="#EB4335"/>
</svg>
